<?xml version="1.0" standalone="no"?>
<!DOCTYPE svg PUBLIC "-//W3C//DTD SVG 20010904//EN"
 "http://www.w3.org/TR/2001/REC-SVG-20010904/DTD/svg10.dtd">
<svg version="1.0" xmlns="http://www.w3.org/2000/svg"
 width="32" height="32" viewBox="0 0 1500.000000 1500.000000"
 preserveAspectRatio="xMidYMid meet">

<g transform="translate(0.000000,1500.000000) scale(0.100000,-0.100000)"
fill="#FFFFFF" stroke="none">
<path d="M2022 12652 c-398 -466 -790 -923 -872 -1017 -82 -93 -149 -178 -149
-189 -1 -16 811 -1279 878 -1366 15 -19 274 -415 576 -880 302 -465 554 -850
560 -856 5 -6 116 -173 245 -372 l235 -362 5 2273 c5 2169 6 2275 23 2327 51
153 149 240 304 270 41 8 313 10 913 8 l855 -3 56 -23 c111 -45 176 -110 221
-221 l23 -56 5 -1698 5 -1699 50 69 c275 375 651 605 1170 712 243 51 293 54
965 58 644 5 833 -1 1080 -33 658 -86 1166 -310 1536 -679 272 -271 446 -565
582 -985 43 -135 104 -375 114 -450 2 -19 66 72 292 420 159 245 292 447 296
450 4 3 254 385 555 850 302 465 561 861 576 880 68 88 879 1350 878 1366 0
11 -67 96 -149 189 -82 94 -474 551 -872 1017 l-723 847 -4755 0 -4755 0 -723
-847z m9235 -196 c76 -35 153 -113 191 -193 l27 -58 0 -960 0 -960 -23 -57
c-43 -106 -143 -194 -254 -224 -78 -20 -1748 -20 -1826 0 -108 29 -201 108
-250 214 l-27 57 0 965 0 965 27 57 c32 69 107 152 163 181 92 47 68 46 1015
44 l895 -2 62 -29z"/>
<path d="M6285 7354 c-228 -45 -341 -191 -375 -484 -6 -51 -10 -648 -10 -1513
l0 -1427 232 -358 c128 -196 237 -362 243 -368 6 -6 258 -392 560 -857 325
-500 556 -847 565 -847 9 0 237 342 563 843 301 464 556 854 567 868 10 13
118 177 240 363 l220 340 0 1470 c0 945 -4 1494 -10 1536 -26 164 -89 290
-177 354 -26 19 -84 48 -128 63 l-80 28 -1170 2 c-968 1 -1182 -1 -1240 -13z"/>
</g>
</svg>
