<svg xmlns="http://www.w3.org/2000/svg" xmlns:xlink="http://www.w3.org/1999/xlink" 
width="140" zoomAndPan="magnify" viewBox="0 0 375 149.999998" height="90" preserveAspectRatio="xMidYMid meet" version="1.0">
<defs><g/></defs><g fill="#000000" fill-opacity="1"><g transform="translate(28.225019, 95.999996)"><g><path d="M 15.15625 0 L 6.671875 0 C 5.234375 0 4.515625 -0.71875 4.515625 -2.15625 L 4.515625 -48.53125 C 4.515625 -49.96875 5.234375 -50.6875 6.671875 -50.6875 L 15.15625 -50.6875 C 16.582031 -50.6875 17.296875 -49.96875 17.296875 -48.53125 L 17.296875 -30.65625 L 39.5625 -30.65625 L 39.5625 -48.53125 C 39.5625 -49.96875 40.28125 -50.6875 41.71875 -50.6875 L 50.1875 -50.6875 C 51.625 -50.6875 52.34375 -49.96875 52.34375 -48.53125 L 52.34375 -2.15625 C 52.34375 -0.71875 51.625 0 50.1875 0 L 41.71875 0 C 40.28125 0 39.5625 -0.71875 39.5625 -2.15625 L 39.5625 -19.59375 L 17.296875 -19.59375 L 17.296875 -2.15625 C 17.296875 -0.71875 16.582031 0 15.15625 0 Z M 15.15625 0 "/></g></g></g><g fill="#000000" fill-opacity="1"><g transform="translate(85.082022, 95.999996)"><g><path d="M 37.6875 0 L 18.09375 0 C 12.78125 0 8.972656 -1.347656 6.671875 -4.046875 C 4.378906 -6.753906 3.234375 -10.71875 3.234375 -15.9375 L 3.234375 -24.625 C 3.234375 -29.695312 4.378906 -33.582031 6.671875 -36.28125 C 8.972656 -38.988281 12.78125 -40.34375 18.09375 -40.34375 L 28.21875 -40.34375 C 33.53125 -40.34375 37.332031 -38.988281 39.625 -36.28125 C 41.925781 -33.582031 43.078125 -29.695312 43.078125 -24.625 L 43.078125 -18.234375 C 43.078125 -16.796875 42.359375 -16.078125 40.921875 -16.078125 L 15.296875 -16.078125 L 15.296875 -14.578125 C 15.296875 -13.285156 15.535156 -12.398438 16.015625 -11.921875 C 16.492188 -11.441406 17.28125 -11.203125 18.375 -11.203125 L 37.6875 -11.203125 C 39.125 -11.203125 39.84375 -10.484375 39.84375 -9.046875 L 39.84375 -2.15625 C 39.84375 -0.71875 39.125 0 37.6875 0 Z M 15.296875 -25.78125 L 15.296875 -24.34375 L 31.015625 -24.34375 L 31.015625 -25.78125 C 31.015625 -27.070312 30.773438 -27.957031 30.296875 -28.4375 C 29.816406 -28.914062 29.023438 -29.15625 27.921875 -29.15625 L 18.375 -29.15625 C 17.226562 -29.15625 16.425781 -28.914062 15.96875 -28.4375 C 15.519531 -27.957031 15.296875 -27.070312 15.296875 -25.78125 Z M 15.296875 -25.78125 "/></g></g></g><g fill="#000000" fill-opacity="1"><g transform="translate(130.668128, 95.999996)"><g><path d="M 31.09375 -20.828125 L 45.59375 -2.65625 C 46.164062 -1.9375 46.316406 -1.3125 46.046875 -0.78125 C 45.785156 -0.257812 45.203125 0 44.296875 0 L 33.953125 0 C 32.859375 0 32 -0.453125 31.375 -1.359375 L 23.6875 -12.203125 L 15.9375 -1.359375 C 15.3125 -0.453125 14.453125 0 13.359375 0 L 3.015625 0 C 2.109375 0 1.519531 -0.257812 1.25 -0.78125 C 0.988281 -1.3125 1.144531 -1.9375 1.71875 -2.65625 L 16.296875 -20.828125 L 2.796875 -37.6875 C 2.222656 -38.40625 2.066406 -39.023438 2.328125 -39.546875 C 2.597656 -40.078125 3.1875 -40.34375 4.09375 -40.34375 L 14.4375 -40.34375 C 15.582031 -40.34375 16.441406 -39.890625 17.015625 -38.984375 L 23.6875 -29.4375 L 30.296875 -38.984375 C 30.867188 -39.890625 31.734375 -40.34375 32.890625 -40.34375 L 43.21875 -40.34375 C 44.125 -40.34375 44.707031 -40.078125 44.96875 -39.546875 C 45.238281 -39.023438 45.085938 -38.40625 44.515625 -37.6875 Z M 31.09375 -20.828125 "/></g></g></g><g fill="#000000" fill-opacity="1"><g transform="translate(177.259278, 95.999996)"><g><path d="M 27.359375 0 L 18.09375 0 C 16.800781 0 15.988281 -0.597656 15.65625 -1.796875 L 0.4375 -48.25 C 0.195312 -48.96875 0.242188 -49.550781 0.578125 -50 C 0.910156 -50.457031 1.457031 -50.6875 2.21875 -50.6875 L 11.265625 -50.6875 C 12.515625 -50.6875 13.304688 -50.085938 13.640625 -48.890625 L 22.6875 -16.65625 L 30.9375 -48.828125 C 31.226562 -50.066406 32.046875 -50.6875 33.390625 -50.6875 L 42.28125 -50.6875 C 43.625 -50.6875 44.441406 -50.066406 44.734375 -48.828125 L 52.984375 -16.65625 L 62.03125 -48.890625 C 62.363281 -50.085938 63.15625 -50.6875 64.40625 -50.6875 L 73.453125 -50.6875 C 74.210938 -50.6875 74.757812 -50.457031 75.09375 -50 C 75.4375 -49.550781 75.488281 -48.96875 75.25 -48.25 L 60.015625 -1.796875 C 59.679688 -0.597656 58.867188 0 57.578125 0 L 48.3125 0 C 46.976562 0 46.164062 -0.617188 45.875 -1.859375 L 37.84375 -32.890625 L 29.796875 -1.859375 C 29.503906 -0.617188 28.691406 0 27.359375 0 Z M 27.359375 0 "/></g></g></g><g fill="#000000" fill-opacity="1"><g transform="translate(252.207145, 95.999996)"><g><path d="M 37.6875 0 L 18.09375 0 C 12.78125 0 8.972656 -1.347656 6.671875 -4.046875 C 4.378906 -6.753906 3.234375 -10.71875 3.234375 -15.9375 L 3.234375 -24.625 C 3.234375 -29.695312 4.378906 -33.582031 6.671875 -36.28125 C 8.972656 -38.988281 12.78125 -40.34375 18.09375 -40.34375 L 28.21875 -40.34375 C 33.53125 -40.34375 37.332031 -38.988281 39.625 -36.28125 C 41.925781 -33.582031 43.078125 -29.695312 43.078125 -24.625 L 43.078125 -18.234375 C 43.078125 -16.796875 42.359375 -16.078125 40.921875 -16.078125 L 15.296875 -16.078125 L 15.296875 -14.578125 C 15.296875 -13.285156 15.535156 -12.398438 16.015625 -11.921875 C 16.492188 -11.441406 17.28125 -11.203125 18.375 -11.203125 L 37.6875 -11.203125 C 39.125 -11.203125 39.84375 -10.484375 39.84375 -9.046875 L 39.84375 -2.15625 C 39.84375 -0.71875 39.125 0 37.6875 0 Z M 15.296875 -25.78125 L 15.296875 -24.34375 L 31.015625 -24.34375 L 31.015625 -25.78125 C 31.015625 -27.070312 30.773438 -27.957031 30.296875 -28.4375 C 29.816406 -28.914062 29.023438 -29.15625 27.921875 -29.15625 L 18.375 -29.15625 C 17.226562 -29.15625 16.425781 -28.914062 15.96875 -28.4375 C 15.519531 -27.957031 15.296875 -27.070312 15.296875 -25.78125 Z M 15.296875 -25.78125 "/></g></g></g><g fill="#000000" fill-opacity="1"><g transform="translate(297.793241, 95.999996)"><g><path d="M 25.703125 -40.34375 L 30.875 -40.34375 C 36.1875 -40.34375 39.988281 -38.988281 42.28125 -36.28125 C 44.582031 -33.582031 45.734375 -29.625 45.734375 -24.40625 L 45.734375 -15.71875 C 45.734375 -10.644531 44.582031 -6.753906 42.28125 -4.046875 C 39.988281 -1.347656 36.1875 0 30.875 0 L 25.703125 0 C 21.203125 0 18.019531 -1.390625 16.15625 -4.171875 L 16.15625 -2.15625 C 16.15625 -0.71875 15.4375 0 14 0 L 6.25 0 C 4.8125 0 4.09375 -0.71875 4.09375 -2.15625 L 4.09375 -52.34375 C 4.09375 -53.78125 4.8125 -54.5 6.25 -54.5 L 14 -54.5 C 15.4375 -54.5 16.15625 -53.78125 16.15625 -52.34375 L 16.15625 -36.1875 C 18.019531 -38.957031 21.203125 -40.34375 25.703125 -40.34375 Z M 33.671875 -14.578125 L 33.671875 -25.78125 C 33.671875 -27.070312 33.429688 -27.957031 32.953125 -28.4375 C 32.472656 -28.914062 31.679688 -29.15625 30.578125 -29.15625 L 19.234375 -29.15625 C 18.140625 -29.15625 17.351562 -28.914062 16.875 -28.4375 C 16.394531 -27.957031 16.15625 -27.070312 16.15625 -25.78125 L 16.15625 -14.578125 C 16.15625 -13.285156 16.378906 -12.398438 16.828125 -11.921875 C 17.285156 -11.441406 18.085938 -11.203125 19.234375 -11.203125 L 30.578125 -11.203125 C 31.734375 -11.203125 32.535156 -11.441406 32.984375 -11.921875 C 33.441406 -12.398438 33.671875 -13.285156 33.671875 -14.578125 Z M 33.671875 -14.578125 "/></g></g></g>
</svg>